<svg id="Layer_1" data-name="Layer 1" xmlns="http://www.w3.org/2000/svg" viewBox="0 0 1920 279"><defs><style>.cls-1{fill:#fff;}</style></defs><title>Artboard 1</title><path class="cls-1" d="M-21-26.23C.57,2.54,40.19,44.73,108.08,66.92c134.63,44,264.19-39.41,357.55,11.93,56.4,31,31.65,73,92.2,96.13,69.07,26.44,115.86-22.55,213.09-6,102.54,17.5,111.17,82.32,190.56,82,66.89-.29,68.79-46.27,168-70.8,98.15-24.27,136.25,10.79,216.17-18.63,71-26.14,53.13-58.33,115.76-82.72,101.61-39.58,191.35,32,313.49,3.72,83.8-19.37,137.92-68.79,171.09-108.8V-93.3L-21-101.5Z"/></svg>