<svg id="Layer_1" data-name="Layer 1" xmlns="http://www.w3.org/2000/svg" viewBox="0 0 1920 1080"><defs><style>.cls-1,.cls-10,.cls-13,.cls-14,.cls-16,.cls-17,.cls-2,.cls-25,.cls-27,.cls-29,.cls-3,.cls-30,.cls-33,.cls-34,.cls-35,.cls-37,.cls-38,.cls-39,.cls-4,.cls-40,.cls-41,.cls-42,.cls-43,.cls-45,.cls-46,.cls-8,.cls-9{fill:none;stroke-miterlimit:10;}.cls-1,.cls-10,.cls-2,.cls-3,.cls-33,.cls-34,.cls-35,.cls-8{stroke:#cdd0c4;}.cls-1{stroke-dasharray:4;}.cls-3{stroke-dasharray:3.95 3.95;}.cls-25,.cls-39,.cls-4,.cls-9{stroke:#f6a915;}.cls-4{stroke-width:1.31px;}.cls-5{fill:#cdd0c4;}.cls-6{fill:#f6a915;}.cls-7{fill:#4b53e4;}.cls-8{stroke-width:0.72px;}.cls-9{stroke-width:0.88px;}.cls-10{stroke-width:0.49px;}.cls-11{fill:#3b82f6;}.cls-12{fill:#30b47a;}.cls-13{stroke:#0c8563;stroke-width:2px;}.cls-14,.cls-17,.cls-29,.cls-30,.cls-37,.cls-42,.cls-45,.cls-46{stroke:#fff;}.cls-14,.cls-46{stroke-width:4.67px;}.cls-15{fill:#ff5940;}.cls-16{stroke:#d15036;stroke-width:1.76px;}.cls-17{stroke-width:3.52px;}.cls-18{fill:#221660;}.cls-19{fill:#f68e15;}.cls-20{fill:#fe9da7;}.cls-21{fill:#f68;}.cls-22{fill:#fcde98;}.cls-23{fill:#3a4b73;}.cls-24{fill:#f65015;}.cls-25{stroke-width:0.83px;}.cls-26,.cls-28{fill:#fff;}.cls-26{opacity:0.5;}.cls-27{stroke:#f68;}.cls-29{stroke-width:0.8px;}.cls-31{fill:#fff9e1;}.cls-32{fill:#d9c693;}.cls-33{stroke-width:1.82px;}.cls-34{stroke-width:1.36px;}.cls-35{stroke-width:1.46px;}.cls-36{opacity:0.15;}.cls-37{stroke-width:2.21px;}.cls-38{stroke:#221660;}.cls-40{stroke:#4b53e4;}.cls-41{stroke:#f67215;stroke-width:1.4px;}.cls-42{stroke-width:1.86px;}.cls-43{stroke:#efddc9;stroke-width:0.91px;}.cls-44,.cls-46{opacity:0.14;}.cls-45{stroke-width:3.52px;}</style></defs><title>Artboard 1</title><path class="cls-1" d="M1453.22,246.74s-285.79-60.05-343.78,242.31c-35.37,184.41,126.84,297.14,227.81,304.43,372.78,26.93,362.81-376.56,362.81-376.56"/><path class="cls-2" d="M1042.92,1036l-1.83-.81"/><path class="cls-3" d="M1037.51,1033.52c-110.36-53-131.26-209.72-131.26-209.72l-2.38-41.36"/><line class="cls-2" x1="903.76" y1="780.47" x2="903.64" y2="778.48"/><rect class="cls-4" x="794.3" y="665.09" width="178.48" height="118.21" rx="4.68"/><rect class="cls-5" x="904.56" y="695.52" width="56.9" height="45.92" rx="2.81"/><path class="cls-6" d="M972.22,674.38a9.63,9.63,0,0,0-9.63-9.63H803.37a9.63,9.63,0,0,0-9.63,9.63V676l178.5.94Z"/><polygon class="cls-7" points="959.64 767.79 955.51 795.91 965.81 786.55 980.32 787.64 959.64 767.79"/><path class="cls-8" d="M869.26,700.76H892.1"/><path class="cls-8" d="M807.54,700.76h57.15"/><path class="cls-8" d="M846.42,710.3H892.1"/><path class="cls-8" d="M807.54,710.3h34"/><path class="cls-8" d="M882.09,719.84h10"/><path class="cls-8" d="M807.54,719.84h70.05"/><path class="cls-8" d="M847,728.89H892.1"/><path class="cls-8" d="M807.54,728.89h35.19"/><path class="cls-8" d="M862.34,738.92H892.1"/><path class="cls-8" d="M807.54,738.92h50"/><rect class="cls-7" x="807.51" y="750.83" width="57.41" height="12.23" rx="2.98"/><rect class="cls-9" x="1762.02" y="138.87" width="120.72" height="79.96" rx="3.17"/><rect class="cls-5" x="1836.6" y="159.46" width="38.49" height="31.06" rx="1.9"/><path class="cls-6" d="M1882.36,145.16a6.51,6.51,0,0,0-6.52-6.51H1768.15a6.5,6.5,0,0,0-6.51,6.51v1.09l120.73.64Z"/><polygon class="cls-7" points="1873.85 208.34 1871.05 227.36 1878.03 221.03 1887.84 221.77 1873.85 208.34"/><path class="cls-10" d="M1812.71,163h15.46"/><path class="cls-10" d="M1771,163h38.66"/><path class="cls-10" d="M1797.27,169.46h30.9"/><path class="cls-10" d="M1771,169.46h23"/><path class="cls-10" d="M1821.39,175.91h6.78"/><path class="cls-10" d="M1771,175.91h47.38"/><path class="cls-10" d="M1797.69,182h30.48"/><path class="cls-10" d="M1771,182h23.81"/><path class="cls-10" d="M1808,188.82h20.14"/><path class="cls-10" d="M1771,188.82h33.8"/><rect class="cls-7" x="1770.95" y="196.87" width="38.83" height="8.28" rx="2.01"/><path class="cls-11" d="M1185.38,459.3c7.33-7.33,22-33.78,5.9-36.71s-60.1,73.3-75.49,62.3S1181,347.83,1146.57,331c-21-10.26-43,5.6-63.82,19.86-23.4,16-44.49,30.29-44,9.56.25-10.21,66-76.12,9.56-115.7-31.29-21.94-88.59,11.08-143.43,43-44.06,25.68-90.55,58.42-135.79,30.43C702.11,276.7,718.89,5.81,524.08-2H-3.64V878.63s40,161.48,264.69,138.17,404.72-273.56,433.5-294c43-30.59,81.17-17.46,61.19,25.82s11.07,80.24,71.72,40.16c109.95-72.67,195.19-380.4,279.28-401.22,19.39-4.8-55.11,133.55-4.82,131.16,22.5-1.08,74-75.45,79.27-79.27,19.41-14.05,1.5,18.81,1.5,18.81Z"/><path d="M700.3,1078.46a1.69,1.69,0,0,1,.78,1.63c0,.48.71.48.75,0a2.44,2.44,0,0,0-1.15-2.28c-.41-.26-.79.39-.38.65Z"/><circle class="cls-12" cx="1674.73" cy="372.14" r="62.03"/><circle class="cls-13" cx="1679.94" cy="365.2" r="62.03"/><polyline class="cls-14" points="1647.51 377.42 1662.68 392.59 1707.49 347.78"/><circle class="cls-15" cx="1186.07" cy="732.51" r="54.57"/><circle class="cls-16" cx="1190.65" cy="726.4" r="54.57"/><circle class="cls-17" cx="1184.86" cy="718.14" r="20.14"/><path class="cls-17" d="M1198.89,734.9l16.7,16.7Z"/><path class="cls-18" d="M1397.18,407.57a37.26,37.26,0,0,0,2.41-11.9c0-1-1.46-1-1.5,0a36,36,0,0,1-2.35,11.51c-.35.9,1.1,1.29,1.44.39Z"/><path class="cls-7" d="M1608.68,650.63l89.17,139S1752,688.43,1760,678s86.33,33,86.33,33-44.7,90.44-67.14,142.41c-17.51,40.55-118.3,33.4-118.3,33.4l-76.27-111.59Z"/><path class="cls-18" d="M1846.36,711s-78.3-43.45-86.33-33c0,0,13.65-29.63,19.07-32.21,15-7.13,127.92,54.39,124.6,56.88-6.84,5.13-53.24-3.82-53.24-3.82Z"/><path class="cls-7" d="M1450.66,757.86c14.37,28.61,112.32,194,153.26,218.87s149.31-23.27,216.74-47.36l-32.1-89.91-126.84,32.91-63.42-90.72s39.23-93.46,10.38-131Z"/><polygon class="cls-18" points="1469.88 800.4 1626.05 715.23 1631.32 683.81 1469.88 800.4"/><path class="cls-6" d="M1481.38,472.54c10.43-5.05,109,14.07,109,14.07l-10.76,75.89-51.39-10.75Z"/><path class="cls-19" d="M1579.65,562.5l-42.9-9.32-34.94-57.73a91.29,91.29,0,0,1,27.2,14.34c.7.54,26.26,16.54,27,17.12,11.23,9.42,27.91,3.62,27.91,3.62Z"/><path class="cls-20" d="M1155,523.15c-12.75-9.47-22.22-28-21.86-39.33s6.92-23.68,13.48-25.86,6.92,5.82,5.1,11.65-1.82,18.58-1.82,18.58Z"/><path class="cls-21" d="M1151.72,469.61c-1.82,5.83-1.82,18.58-1.82,18.58l5.1,35s-10.3-15.33-13.74-32.53S1151.72,469.61,1151.72,469.61Z"/><path class="cls-20" d="M1324.61,409.2c-10.36,19.34,7.36,75.53,8.78,79,3.18,7.8,8.78,29.47,50.17,12.54l9.34,18s49.59-21.15,53.35-28.68c0,0-9.41-16.26-20-39.59-9.9-21.78-20.4-50.57-37.66-55.11C1352.83,386,1334,391.65,1324.61,409.2Z"/><path class="cls-18" d="M1306.43,431.78s9.4,22,48.28,2.51c0,0,5.65,10.66,16.93,11.28l1.88,13.17,9.41-3.76s3.76,37,10.66,40.13,40.76-11.91,45.15-18.81c1.65-2.58-3.39-29.57-4.39-42.64-1.66-21.78-1.3-43.12-22.87-32.33,0,0-7.46-16.59-15-21s-15.44,3.77-15.44,3.77-6.9-19.44-27-16.93-24.46,15.05-24.46,15.05-30.1-23.2-52.68,6.9c-17.17,22.9,6.27,47.66,18.82,45.15Z"/><path class="cls-20" d="M1184.14,499.84c-8.38,1.46-16.39-6.92-18.58-10.56s.84-7.85,11.66-21.13c8-9.83-.37-14.56-9.47-10.19,0,0-19.31,9.1-23.31,22.94-5.35,18.47,13.11,47.35,13.11,47.35s16.39,52.81,53.17,97.61c29.14,35.48,55,29.87,69.94,29.51S1341.54,635,1341.54,635l-44.87-63.76L1265.36,584c-26.23-22.58-55-75-55-75Z"/><path class="cls-21" d="M1177.22,468.15c-10.82,13.28-13.84,17.49-11.66,21.13s10.2,12,18.58,10.56l-13.77,4.65-3.93,8.58s-8.94-15.37-6.79-25.38S1177.22,468.15,1177.22,468.15Z"/><path class="cls-21" d="M1296.67,571.19,1341.54,635s-16.7,7.29-33.24,13.16c-3.6,1.28,8.94-4.84,7.22-16.06C1312,609.27,1296.67,571.19,1296.67,571.19Z"/><path class="cls-20" d="M1590.28,487.74c-.71.26,36.81,9.85,46.8,5.05,14-6.7,34-54.55,34-54.55s-7.77-26.29-2.39-28.68,10.15,11.35,10.15,11.35,8.37-43.62,13.75-43,7.38,9.45,7.49,22.08c0,0,1.55,4.43,2.74-.35s3.88-20.83,9.26-22.62,8.81,15.81,5.82,27.76c0,0,10.38-20.47,13.37-19.88s6.73,13.32.16,27.67c0,0,8.73-11.26,11.72-9.46s1,19.89-14.69,43.29c0,0-6.31,78-61.28,109.63-19.14,11-42.91,12.53-64,9.11a231.75,231.75,0,0,1-23.51-5Z"/><path class="cls-20" d="M1379.77,461.4c4.59-13.77,8.37-15.8,14.93-7.93s-1.16,23.67-10.34,23S1379.77,461.4,1379.77,461.4Z"/><path class="cls-18" d="M1788.56,839.46s31-12,37.8-9,59.85,127.89,56.84,145.16-50.48-51-50.48-51l-12.06,4.76Z"/><path class="cls-6" d="M1294,563.76c1.26,11.29,41.88,73.07,47.52,71.19,3.77-1.25,30.73-15.05,30.73-15.05-.44.15,48.64,112,92.74,183,0,0,135.65-85.75,183.31-132.15,0,0-150.63-189.43-166.94-198.21l-127.92,63.33Z"/><path class="cls-18" d="M1613.86,740.53a168.4,168.4,0,0,1-15.49,41.16.81.81,0,0,0,0,.81l54.81,79,7.84,11.3a.86.86,0,0,0,.91.37l105.37-28,14.8-3.93a.8.8,0,0,0-.43-1.55l-106,28.14c-4.37,1.16-9.48,3.43-14,3.72-.11,0,1.13.82.54.05s-.94-1.35-1.41-2l-5.23-7.54-38.24-55.1-15.77-22.72c-.38-.55-1.38-1.53-1.52-2.18-.29-1.4,2.92-5.65,3.77-7.45A168,168,0,0,0,1615.41,741c.23-1-1.32-1.44-1.55-.43Z"/><path class="cls-18" d="M1632.94,830.9l-33.87-48.81a160,160,0,0,0,10-22.25C1611.29,753.6,1632.94,830.9,1632.94,830.9Z"/><path class="cls-21" d="M1603.16,565.12a231.75,231.75,0,0,1-23.51-5l10.63-72.37s1.29,49.31,6.4,60.55A178,178,0,0,1,1603.16,565.12Z"/><path class="cls-6" d="M1164.43,518.4l2.09-7.68,2.23-8.9,8.47-33.67s1.79-5.87,8.36-11.13a31.43,31.43,0,0,1,3.11-2.2,21.93,21.93,0,0,1,1.83,3.41,30.48,30.48,0,0,1,2.63,13.61c-.24,5.63-3.11,21.31-5.56,34-.66,3.38-1.29,6.54-1.83,9.24-1,5.14-1.75,8.58-1.75,8.58s-6.09,3-11.31,2.18S1164.43,518.4,1164.43,518.4Z"/><path class="cls-22" d="M1193.15,471.84a30.48,30.48,0,0,0-2.63-13.61,21.93,21.93,0,0,0-1.83-3.41,31.43,31.43,0,0,0-3.11,2.2c-6.57,5.26-8.36,11.13-8.36,11.13l4.85-3.25,1.58,2.74,3.75-2.31,2.44,5,2.16-2.45Z"/><path d="M1190.52,458.23a21.93,21.93,0,0,0-1.83-3.41,31.43,31.43,0,0,0-3.11,2.2Z"/><path class="cls-23" d="M1185.76,515c.54-2.7,1.17-5.86,1.83-9.24a18.57,18.57,0,0,0-7.76-4.36,18.82,18.82,0,0,0-11.08.38c-.74,3-1.49,5.93-2.23,8.9Z"/><path class="cls-24" d="M1185.76,515c-1,5.14-1.75,8.58-1.75,8.58s-6.09,3-11.31,2.18-8.27-7.4-8.27-7.4l2.09-7.68s3.32-3.33,10.22-1.91C1184,510.31,1185.76,515,1185.76,515Z"/><path class="cls-20" d="M1210.36,509c4-13.11-4.37-22.58-10.93-33.15s-10.56-9.47-13.47-7.28c-2.51,1.88,4.16,22.67.71,29.34a27.21,27.21,0,0,0-3.44,11.34c-.3,7.76.53,17.79,6.53,19.35,2,.53,1.89-20.13,4-19.87A89.09,89.09,0,0,0,1210.36,509Z"/><path class="cls-25" d="M836.86,1054.87H813.54a41.19,41.19,0,0,1-41.18-41.19h0a41.18,41.18,0,0,1,41.18-41.18h4.54a41.19,41.19,0,0,1,41.19,41.18v38.76a1.71,1.71,0,0,1-1.48,1.84Z"/><polygon class="cls-21" points="1089.65 968.66 1087.4 983.96 1100.91 979.46 1089.65 968.66"/><polygon class="cls-21" points="1509.33 366.8 1506.38 386.85 1524.07 380.95 1509.33 366.8"/><polygon class="cls-21" points="22.09 494.95 19.14 515 36.84 509.1 22.09 494.95"/><polygon class="cls-21" points="872.17 614.3 869.22 634.35 886.91 628.45 872.17 614.3"/><circle class="cls-6" cx="797.24" cy="290.8" r="6.32"/><circle class="cls-26" cx="669.93" cy="235.51" r="3.94"/><circle class="cls-6" cx="1062.61" cy="791.91" r="5.93"/><circle class="cls-6" cx="303.87" cy="928.02" r="5.93"/><polyline class="cls-27" points="1795.01 -7.32 1812.6 -4.69 1808.59 8.22 1824.05 10.9 1821.77 25.06 1836.78 26.89 1833.62 39.36"/><rect class="cls-7" x="1037.23" y="592.9" width="19.2" height="19.2" transform="translate(-161 604.13) rotate(-30)"/><rect class="cls-28" x="978.85" y="295.82" width="11.37" height="11.37" transform="translate(-18.85 532.66) rotate(-30)"/><polyline class="cls-29" points="962.43 430.47 970.45 434.65 966.38 440.19 973.36 444.04 969.92 450.46 976.82 453.83 973.23 459.29"/><polyline class="cls-30" points="-0.66 43.75 10.49 45.33 8.01 53.52 17.8 55.15 16.43 64.12 25.93 65.21 23.98 73.11"/><path class="cls-31" d="M1302.15,913.34l119.76-62.48s20,5.95,29.52,21.93,8.42,42,15.76,48.25c14.68,12.56,46.25,10,52.71,55.08L1407.49,1046s-9.21-16.2-16.37-19.74c-11.49-5.7-31.77-9.35-44.29-24.64-10-12.28-7.95-41.14-16.54-60C1321.52,922.42,1302.15,913.34,1302.15,913.34Z"/><path class="cls-32" d="M1342.83,924c14.14-6.14,27.27-15.31,40.36-23.33s26.22-17.09,40.23-23.62c1.39-.65.18-2.69-1.19-2.05-14,6.53-27.08,15.56-40.23,23.62s-26.23,17.19-40.36,23.32c-1.4.61-.2,2.66,1.19,2.06Z"/><path class="cls-32" d="M1350.91,942.21c14.14-6.13,27.27-15.3,40.36-23.32s26.22-17.09,40.23-23.62c1.39-.65.18-2.7-1.2-2-14,6.53-27.07,15.56-40.22,23.62s-26.23,17.19-40.37,23.32c-1.39.61-.19,2.66,1.2,2.05Z"/><path class="cls-32" d="M1359,964.43c14.14-6.13,27.27-15.3,40.36-23.32s26.22-17.09,40.23-23.62c1.39-.65.18-2.7-1.2-2-14,6.53-27.07,15.56-40.22,23.62s-26.23,17.19-40.37,23.32c-1.39.61-.19,2.66,1.2,2Z"/><path class="cls-32" d="M1368.05,988.2c14.13-6.14,27.26-15.31,40.36-23.33s26.21-17.09,40.23-23.62c1.38-.65.17-2.69-1.2-2-14,6.53-27.08,15.56-40.23,23.62S1381,980,1366.85,986.14c-1.4.61-.19,2.66,1.2,2.06Z"/><path class="cls-32" d="M1390.67,998.38c14.14-6.13,27.27-15.31,40.37-23.33s26.21-17.08,40.22-23.62c1.39-.64.18-2.69-1.19-2-14,6.53-27.08,15.57-40.23,23.62s-26.23,17.19-40.36,23.33c-1.4.6-.19,2.65,1.19,2Z"/><path class="cls-32" d="M1413.3,1012c14.14-6.14,27.27-15.31,40.36-23.33s26.22-17.09,40.23-23.62c1.39-.65.18-2.69-1.19-2-14,6.53-27.08,15.57-40.23,23.62s-26.23,17.19-40.36,23.33c-1.4.6-.19,2.65,1.19,2.05Z"/><path class="cls-2" d="M1211.79,986.94c-4.93-1.8-8.14-6-6.78-11.07l1.5-5.55L1219,924.66a6.45,6.45,0,0,1,2.09-3.26l7.76-6.46,2-1.65a1.83,1.83,0,0,1,2.88.76l.92,2.44,3.15,8.38a6.37,6.37,0,0,1,.21,3.84l-12,45.81-1.6,6.26a10.84,10.84,0,0,1-2.69,5c-2,2.06-4.61,2.73-9,1.47Z"/><path class="cls-5" d="M1234.6,916.49l-.92-2.44a1.83,1.83,0,0,0-2.88-.76l-2,1.65a2.39,2.39,0,0,0,2,1.61A10.51,10.51,0,0,0,1234.6,916.49Z"/><path class="cls-2" d="M1226,974.52l-1.67,6.55a10.19,10.19,0,0,1-2.91,5c-2,1.84-4.53,2.39-8.72,1.19l-.9-.29c-4.93-1.8-8.14-6-6.78-11.07l1.5-5.55s4.87-2.29,8.6-1.75C1223.67,969.82,1226,974.52,1226,974.52Z"/><path class="cls-2" d="M1207.51,978.79c1.92-1.53,10.36-2.49,13.81,4"/><polyline class="cls-2" points="1221.09 925.45 1224.29 927.23 1228.74 926.34 1232.47 928.65 1235.85 927.4"/><path class="cls-2" d="M1210.49,962s10-4.45,16.9,5"/><line class="cls-2" x1="1224.72" y1="959.14" x2="1232.47" y2="928.65"/><line class="cls-2" x1="1215.65" y1="961.28" x2="1223.4" y2="930.79"/><path class="cls-27" d="M1902.33,928.15c4.27,5.54,4.89,12.55-.26,17.29l-5.63,5.18-61,57.11a8.52,8.52,0,0,1-4.67,2.18l-13.32,1.73-3.4.45a2.44,2.44,0,0,1-2.7-2.91l.71-3.39,2.41-11.67a8.58,8.58,0,0,1,2.5-4.47l60.5-57.64,6.25-5.9a14.42,14.42,0,0,1,6.58-3.68c3.75-.87,7.13.21,11.18,4.76C1901.81,927.51,1902.08,927.83,1902.33,928.15Z"/><path class="cls-21" d="M1812.11,1005.79l-.71,3.39a2.44,2.44,0,0,0,2.7,2.91l3.4-.45a3.19,3.19,0,0,0-1.16-3.27A14,14,0,0,0,1812.11,1005.79Z"/><path class="cls-27" d="M1877.52,932l6.55-6.18a13.42,13.42,0,0,1,6.81-3.51c3.54-.65,6.79.54,10.65,4.87.28.32.55.64.8,1,4.27,5.54,4.89,12.55-.26,17.29l-5.63,5.18s-7.12-.9-10.92-4.17C1876.78,939,1877.52,932,1877.52,932Z"/><path class="cls-27" d="M1901.34,940.37c-3.25.36-13.42-4.57-12.66-14.37"/><polyline class="cls-27" points="1833.68 1005.34 1831.35 1001.05 1825.71 998.89 1823.15 993.63 1818.47 992.62"/><path class="cls-27" d="M1886,957.15s-14.37-2.1-15.46-17.64"/><line class="cls-27" x1="1868" y1="950.21" x2="1823.15" y2="993.62"/><line class="cls-27" x1="1879.72" y1="954.27" x2="1834.88" y2="997.68"/><path class="cls-33" d="M1958.92,459.48H1841.87l-17.79,11.4-1.18-11.4a8.22,8.22,0,0,1-8.22-8.23V420.77a8.22,8.22,0,0,1,8.22-8.23h136a8.22,8.22,0,0,1,8.22,8.23v30.48A8.22,8.22,0,0,1,1958.92,459.48Z"/><line class="cls-33" x1="1834.94" y1="430.28" x2="1949.03" y2="430.28"/><line class="cls-33" x1="1834.94" y1="442.83" x2="1949.03" y2="442.83"/><path class="cls-34" d="M1090.33,222.27h29.23l9.84,6.31.65-6.31a4.54,4.54,0,0,0,4.55-4.55V200.86a4.55,4.55,0,0,0-4.55-4.55h-39.72a4.55,4.55,0,0,0-4.55,4.55v16.86A4.55,4.55,0,0,0,1090.33,222.27Z"/><line class="cls-34" x1="1123.4" y1="206.12" x2="1095.8" y2="206.12"/><line class="cls-34" x1="1123.4" y1="213.06" x2="1095.8" y2="213.06"/><rect class="cls-35" x="538.38" y="986.9" width="94.94" height="62.2" rx="4.81"/><path class="cls-12" d="M550.75,1037.74s19.18-29.45,21.86-29.45,25.87,29.89,25.87,29.89Z"/><path class="cls-12" d="M587.13,1018.09l14.92,18.75h18v-10.7s-16.82-15.85-21.35-18.75C597.25,1008.87,587.13,1018.93,587.13,1018.09Z"/><circle class="cls-6" cx="560.62" cy="1002.24" r="5.02"/><g class="cls-36"><rect class="cls-37" x="27.59" y="918.58" width="105.1" height="68.85" rx="5.33"/><path class="cls-37" d="M43.49,974.87a1.2,1.2,0,0,1-1-1.85c4.54-6.88,20.46-30.76,23-30.76,3,0,28.64,33.09,28.64,33.09Z"/><path class="cls-37" d="M78,954.55l16.52,20.76,22.11-.43a1.2,1.2,0,0,0,1.18-1.19l.13-11.09a1.18,1.18,0,0,0-.44-.94c-2.82-2.28-18.41-14.81-24.71-19.31a2.26,2.26,0,0,0-3,.26C86.35,946.17,78,954.55,78,954.55Z"/><circle class="cls-37" cx="52.21" cy="935.57" r="5.55"/></g><circle class="cls-38" cx="1714.69" cy="675" r="4.27"/><circle class="cls-38" cx="1355.7" cy="684.11" r="4.27"/><circle class="cls-38" cx="1273.46" cy="1045.88" r="4.27"/><circle class="cls-38" cx="1100.45" cy="257.67" r="4.27"/><line class="cls-30" x1="34.72" y1="848.13" x2="41.76" y2="868.26"/><line class="cls-30" x1="29.21" y1="862.51" x2="47.54" y2="854.85"/><line class="cls-30" x1="661.04" y1="100.73" x2="668.08" y2="120.86"/><line class="cls-30" x1="655.53" y1="115.12" x2="673.86" y2="107.45"/><line class="cls-30" x1="807.27" y1="743.04" x2="814.31" y2="763.17"/><line class="cls-30" x1="801.77" y1="757.42" x2="820.09" y2="749.76"/><line class="cls-39" x1="1578.4" y1="238.1" x2="1585.44" y2="258.24"/><line class="cls-39" x1="1572.9" y1="252.49" x2="1591.22" y2="244.83"/><line class="cls-39" x1="1194.61" y1="851.94" x2="1201.66" y2="872.07"/><line class="cls-39" x1="1189.11" y1="866.32" x2="1207.44" y2="858.66"/><line class="cls-39" x1="1814.72" y1="563.47" x2="1821.76" y2="583.6"/><line class="cls-39" x1="1809.21" y1="577.86" x2="1827.54" y2="570.19"/><line class="cls-40" x1="682.68" y1="906.14" x2="689.73" y2="926.27"/><line class="cls-40" x1="677.18" y1="920.52" x2="695.51" y2="912.86"/><circle class="cls-6" cx="1305.55" cy="258.72" r="47.67"/><circle class="cls-41" cx="1309.01" cy="252.55" r="47.67"/><path class="cls-42" d="M1329.78,250.92c0,8.69-3.85,16-11,19.82-3.21,1.73-6.16,15-6.16,15l-13.95-.28s-2.29-14.08-4.74-15.78a22.82,22.82,0,1,1,35.85-18.74Z"/><polyline class="cls-42" points="1300.63 269.54 1297 248.89 1305.93 253.91 1314.58 248.89 1311.23 269.54"/><line class="cls-42" x1="1293.93" y1="269.66" x2="1318.78" y2="269.66"/><line class="cls-42" x1="1298.12" y1="277.35" x2="1314.58" y2="277.35"/><path class="cls-18" d="M1307.72,326.74a.38.38,0,0,0,0-.75.38.38,0,0,0,0,.75Z"/><path class="cls-43" d="M831.18,1012.58c.3,6.48-2.32,12-7.53,15.16-2.34,1.4-4.08,11.38-4.08,11.38l-10.42.27s-2.19-10.43-4.07-11.61a17,17,0,1,1,26.1-15.2Z"/><polyline class="cls-43" points="808.57 1027.41 807.03 1011.82 813.86 1015.26 820.14 1011.22 820.2 1027.57"/><line class="cls-43" x1="806.08" y1="1028.43" x2="822.95" y2="1028.1"/><line class="cls-43" x1="808.46" y1="1033.37" x2="820.74" y2="1032.81"/><g class="cls-44"><circle class="cls-45" cx="576.88" cy="803.62" r="20.14"/><path class="cls-45" d="M590.92,820.38l16.71,16.71Z"/></g><polyline class="cls-46" points="-10.82 240.03 4.35 255.2 49.16 210.39"/><circle class="cls-5" cx="1460.86" cy="248.95" r="6.75"/></svg>